Jump_normalized_Motion_pl12
version=1
nRows=10
nColumns=43
inDegrees=yes
endheader
time		pelvis_tilt		pelvis_list		pelvis_rotation		pelvis_tx		pelvis_ty		pelvis_tz		hip_flexion_r		hip_adduction_r		hip_rotation_r		knee_angle_r		ankle_angle_r		subtalar_angle_r		mtp_angle_r		hip_flexion_l		hip_adduction_l		hip_rotation_l		knee_angle_l		ankle_angle_l		subtalar_angle_l		mtp_angle_l		lumbar_extension		lumbar_bending		lumbar_rotation		neck_flexion		neck_lateral_bending		neck_rotation		arm_flex_r		arm_add_r		arm_rot_r		elbow_flex_r		pro_sup_r		wrist_flex_r		wrist_dev_r		hand_finger_flex_r		arm_flex_l		arm_add_l		arm_rot_l		elbow_flex_l		pro_sup_l		wrist_flex_l		wrist_dev_l		hand_finger_flex_l		
0.187500		4.260068		-8.651365		87.389795		0.042326		1.705576		1.927257		89.510000		2.958874		-5.226292		-143.753129		26.561937		1.031018		23.468861		91.962105		-8.882578		3.021759		-147.716398		22.053976		-1.040141		20.943565		-62.453504		0.302055		3.205744		40.462766		-1.342296		4.054805		37.572293		-20.656121		2.940025		71.721473		106.925956		-7.148613		-2.525458		22.506747		28.063300		-25.465667		-4.951353		71.406741		97.154062		0.510663		-0.415964		32.535576		
0.191313		4.236290		-8.776978		87.409428		0.042322		1.705430		1.925831		89.500193		2.930268		-5.177731		-143.817781		26.585122		1.038714		23.523263		91.961332		-8.935965		2.995845		-147.769808		21.995590		-0.962718		21.018497		-62.234848		0.285556		3.265105		40.540809		-1.342051		3.996839		38.560637		-20.799550		3.359923		71.791635		107.087545		-7.128123		-2.427223		22.544534		29.156413		-25.668171		-4.495462		71.762618		96.999441		0.183796		-0.335644		32.385372		
0.195126		4.215095		-8.911758		87.423840		0.042304		1.705385		1.924366		89.472238		2.899698		-5.143330		-143.868159		26.618249		1.029883		23.565420		91.946789		-9.000102		2.957131		-147.804426		21.970178		-0.894915		21.093007		-62.009374		0.269182		3.331928		40.627088		-1.360114		3.941523		39.547271		-20.935657		3.766915		71.884302		107.187184		-7.116168		-2.342067		22.539547		30.282850		-25.843744		-4.041296		72.106768		96.841318		-0.144278		-0.254346		32.212592		
0.198939		4.194933		-9.052437		87.441836		0.042341		1.705467		1.922867		89.433388		2.880232		-5.129170		-143.895668		26.632457		1.024838		23.593166		91.897028		-9.086357		2.910060		-147.817936		21.989109		-0.834728		21.176680		-61.777506		0.243996		3.406947		40.720392		-1.383704		3.881949		40.539613		-21.055374		4.144035		71.983482		107.215053		-7.124878		-2.256113		22.482652		31.449969		-26.013304		-3.555092		72.436516		96.651029		-0.467462		-0.168276		32.010256		
0.202753		4.175725		-9.208403		87.449863		0.042367		1.705616		1.921337		89.391723		2.876296		-5.133627		-143.911475		26.600144		1.046938		23.607074		91.836460		-9.184922		2.862159		-147.807768		22.039311		-0.778319		21.255629		-61.534565		0.223233		3.490169		40.801009		-1.396905		3.827950		41.520613		-21.119659		4.451206		72.094020		107.202293		-7.136074		-2.174619		22.402824		32.625895		-26.157534		-3.107810		72.783697		96.455061		-0.721543		-0.109010		31.811728		
0.206566		4.164924		-9.375691		87.453124		0.042413		1.705866		1.919786		89.349839		2.890382		-5.157272		-143.912051		26.497167		1.114226		23.614639		91.765347		-9.287448		2.818043		-147.775899		22.110247		-0.718595		21.328585		-61.278437		0.195030		3.572552		40.891511		-1.398956		3.780359		42.515707		-21.130377		4.706379		72.191757		107.172941		-7.135282		-2.079426		22.323447		33.820141		-26.275120		-2.679068		73.123059		96.248453		-0.918731		-0.071424		31.603536		
0.210379		4.152392		-9.548322		87.449924		0.042486		1.706212		1.918211		89.298547		2.913292		-5.195304		-143.900446		26.334108		1.214633		23.624858		91.681783		-9.382691		2.777030		-147.730000		22.186013		-0.656180		21.400578		-61.015928		0.159100		3.656614		40.976661		-1.402745		3.738433		43.518410		-21.111512		4.926400		72.295093		107.125124		-7.119800		-1.966983		22.261950		35.030266		-26.371584		-2.256869		73.457054		96.006833		-1.098574		-0.046646		31.365296		
0.214192		4.139464		-9.746808		87.453280		0.042558		1.706653		1.916603		89.255359		2.925701		-5.253479		-143.860758		26.182450		1.302284		23.635623		91.606085		-9.456303		2.736815		-147.658198		22.227260		-0.608702		21.450882		-60.725589		0.132628		3.726978		40.992172		-1.421726		3.715751		44.475324		-21.031331		5.054146		72.450152		107.073392		-7.099469		-1.891530		22.234481		36.185318		-26.374515		-1.985957		73.844030		95.802278		-1.223535		-0.060455		31.170828		
0.218005		4.133478		-9.948280		87.449989		0.042605		1.707184		1.914971		89.201751		2.946593		-5.300842		-143.834924		25.981207		1.377208		23.645662		91.531586		-9.533159		2.688309		-147.596556		22.260677		-0.570640		21.501246		-60.423937		0.116398		3.811886		41.120961		-1.444588		3.681680		45.531439		-20.987906		5.266672		72.506377		107.016345		-7.018598		-1.760670		22.248127		37.454130		-26.372662		-1.617671		74.081703		95.607178		-1.336663		-0.011248		30.935672		
0.221818		4.106705		-10.136242		87.445562		0.042686		1.707909		1.913306		89.103358		2.947422		-5.353667		-143.768372		25.847168		1.368438		23.668234		91.410149		-9.593793		2.628083		-147.506148		22.271783		-0.539736		21.571329		-60.138946		0.080102		3.903814		41.152804		-1.496168		3.618696		46.539419		-20.993106		5.457965		72.665391		106.892956		-6.942684		-1.610700		22.297931		38.736385		-26.356537		-1.191025		74.356358		95.303280		-1.475426		0.067145		30.604724		
